<svg width="64" height="16" viewBox="0 0 64 16" fill="none" xmlns="http://www.w3.org/2000/svg">
<path d="M56.8297 16C52.5493 16 49.6377 12.9544 49.6377 7.92699C49.6377 2.89961 52.5493 0 56.8297 0C61.0884 0 64 2.92047 64 7.92699C64 12.9544 61.0884 16 56.8297 16ZM56.8297 13.3299C59.2198 13.3299 60.7408 11.2229 60.7408 7.92699C60.7408 4.63103 59.2198 2.64928 56.8297 2.64928C54.4179 2.64928 52.9186 4.63103 52.9186 7.92699C52.9186 11.2229 54.4179 13.3299 56.8297 13.3299Z" fill="#2F2F2F"/>
<path d="M39.6036 16C35.2363 16 31.8901 13.2047 31.8901 8.05215C31.8901 2.96219 35.3232 0 39.6036 0C41.9068 0 43.5147 0.959583 44.5577 1.96089L42.8629 3.94263C42.0589 3.21252 41.1463 2.64928 39.7123 2.64928C37.018 2.64928 35.1711 4.65189 35.1711 7.94785C35.1711 11.3272 36.779 13.3299 39.9296 13.3299C40.7118 13.3299 41.494 13.1213 41.9503 12.7666V9.72099H39.0822V7.19687H44.8184V14.1434C43.732 15.1864 41.8199 16 39.6036 16Z" fill="#2F2F2F"/>
<path d="M20.1889 16C15.9084 16 12.9969 12.9544 12.9969 7.92699C12.9969 2.89961 15.9084 0 20.1889 0C24.4476 0 27.3592 2.92047 27.3592 7.92699C27.3592 12.9544 24.4476 16 20.1889 16ZM20.1889 13.3299C22.579 13.3299 24.1 11.2229 24.1 7.92699C24.1 4.63103 22.579 2.64928 20.1889 2.64928C17.7771 2.64928 16.2778 4.63103 16.2778 7.92699C16.2778 11.2229 17.7771 13.3299 20.1889 13.3299Z" fill="#2F2F2F"/>
<path d="M0 15.7079V0.271179H3.21577V13.1212H9.75595V15.7079H0Z" fill="#2F2F2F"/>
</svg>
